<?xml version="1.0" encoding="utf-8"?>
<!-- Generator: Adobe Illustrator 24.1.1, SVG Export Plug-In . SVG Version: 6.00 Build 0)  -->
<svg version="1.1" id="Layer_1" xmlns="http://www.w3.org/2000/svg" xmlns:xlink="http://www.w3.org/1999/xlink" x="0px" y="0px"
	 viewBox="0 0 200 200" style="enable-background:new 0 0 200 200;" xml:space="preserve">
<style type="text/css">
	.st0{fill:url(#SVGID_1_);}
	.st1{fill:#FFFFFF;}
	.st2{fill:url(#SVGID_2_);}
	.st3{fill:#FBDB2C;}
	.st4{fill:url(#SVGID_3_);}
	.st5{fill:#6FC7B7;}
	.st6{filter:url(#Adobe_OpacityMaskFilter);}
	.st7{mask:url(#SVGID_4_);}
	.st8{fill:#929497;}
	.st9{fill:url(#SVGID_5_);}
	.st10{clip-path:url(#SVGID_7_);fill:#FCBA40;}
	.st11{opacity:0.66;clip-path:url(#SVGID_7_);fill:#F68C28;}
	.st12{opacity:0.39;clip-path:url(#SVGID_7_);fill:#F6921E;}
	.st13{fill:url(#SVGID_8_);}
	.st14{fill:url(#SVGID_9_);}
	.st15{fill:url(#SVGID_10_);}
	.st16{fill:url(#SVGID_11_);}
	.st17{fill:url(#SVGID_12_);}
	.st18{fill:url(#SVGID_13_);}
	.st19{fill:url(#SVGID_14_);}
	.st20{fill:url(#SVGID_15_);}
	.st21{fill:url(#SVGID_16_);}
	.st22{fill:url(#SVGID_17_);}
	.st23{fill:url(#SVGID_18_);}
	.st24{fill:url(#SVGID_19_);}
	.st25{fill:#009489;}
	.st26{fill:#8CC63F;}
	.st27{fill:none;stroke:#999999;stroke-width:9.9213;stroke-linecap:round;stroke-miterlimit:10;}
	.st28{fill:none;stroke:#009489;stroke-width:12.8279;stroke-miterlimit:10;}
	.st29{fill:#448D42;}
	.st30{fill:#B9CD33;}
	.st31{fill:#445E2F;}
	.st32{fill:#837B75;}
	.st33{fill:#B3B3B3;}
	.st34{fill:#FF0000;}
	.st35{fill:none;stroke:#B3B3B3;stroke-width:10.4533;stroke-linecap:round;stroke-miterlimit:10;}
	.st36{fill:none;stroke:#808080;stroke-width:8.5039;stroke-miterlimit:10;}
	.st37{fill:#FFFFFF;stroke:#808080;stroke-width:8.5039;stroke-linecap:round;stroke-linejoin:round;stroke-miterlimit:10;}
	.st38{fill:none;stroke:#808080;stroke-width:8.5039;stroke-linecap:round;stroke-linejoin:round;stroke-miterlimit:10;}
	.st39{fill:#CCCCCC;}
</style>
<g>
	<linearGradient id="SVGID_1_" gradientUnits="userSpaceOnUse" x1="52.0183" y1="211.3979" x2="104.051" y2="54.6803">
		<stop  offset="0.1904" style="stop-color:#007671"/>
		<stop  offset="0.9944" style="stop-color:#009489"/>
	</linearGradient>
	<path class="st0" d="M182.97,49.46c-6.65,0-57.95-16.94-77.53-40.41c0,0-0.78-2.48-5.44-4.05c-4.66,1.57-5.44,4.05-5.44,4.05
		C74.99,32.52,23.68,49.46,17.03,49.46c-6.65,0-5.25,9.47-5.25,9.47c7.35,72.32,37.43,105.02,37.43,105.02
		C67.93,184.52,100,195,100,195s32.07-10.48,50.79-31.05c0,0,30.08-32.7,37.43-105.02C188.21,58.93,189.61,49.46,182.97,49.46z"/>
	<g>
		<path class="st1" d="M109.65,110.87c4.73-3.14,7.85-8.5,7.85-14.59c0-9.65-7.85-17.5-17.5-17.5c-9.65,0-17.5,7.85-17.5,17.5
			c0,6.09,3.12,11.45,7.85,14.59c-10.69,3.95-18.35,14.21-18.35,26.26h4.67c0-12.87,10.47-23.34,23.34-23.34
			c12.87,0,23.34,10.47,23.34,23.34h4.67C128.01,125.08,120.35,114.82,109.65,110.87z M87.16,96.28c0-7.08,5.76-12.84,12.84-12.84
			c7.08,0,12.84,5.76,12.84,12.84c0,7.08-5.76,12.84-12.84,12.84C92.92,109.12,87.16,103.36,87.16,96.28z"/>
		<path class="st5" d="M132.99,99.2c4.73-3.14,7.85-8.5,7.85-14.59c0-9.65-7.85-17.5-17.5-17.5c-4.68,0-8.92,1.85-12.06,4.85
			c-1.16,1.11-2.17,2.38-2.99,3.77c1.46,0.59,2.84,1.32,4.13,2.19c0.83-1.34,1.89-2.52,3.13-3.48c2.16-1.66,4.86-2.66,7.8-2.66
			c7.08,0,12.84,5.76,12.84,12.84c0,5.88-3.97,10.83-9.37,12.35c-1.1,0.31-2.26,0.49-3.47,0.49c-0.41,0-0.82-0.02-1.22-0.06
			c-0.08,1.68-0.35,3.31-0.79,4.87c0.67-0.06,1.33-0.14,2.01-0.14c0.95,0,1.88,0.07,2.8,0.18c11.55,1.39,20.54,11.23,20.54,23.15
			h4.67C151.34,113.41,143.69,103.15,132.99,99.2z"/>
		<path class="st5" d="M76.66,102.12c0.68,0,1.34,0.09,2.01,0.14c-0.44-1.56-0.7-3.19-0.79-4.87c-0.4,0.04-0.81,0.06-1.22,0.06
			c-1.2,0-2.36-0.18-3.47-0.49c-5.4-1.52-9.37-6.47-9.37-12.35c0-7.08,5.76-12.84,12.84-12.84c2.93,0,5.63,1,7.8,2.66
			c1.25,0.96,2.31,2.13,3.13,3.48c1.28-0.87,2.67-1.6,4.13-2.19c-0.82-1.39-1.83-2.66-2.99-3.77c-3.14-3-7.39-4.85-12.06-4.85
			c-9.65,0-17.5,7.85-17.5,17.5c0,6.09,3.12,11.45,7.85,14.59c-10.69,3.95-18.35,14.21-18.35,26.26h4.67
			c0-11.92,8.99-21.77,20.54-23.15C74.78,102.19,75.71,102.12,76.66,102.12z"/>
	</g>
</g>
<g>
	<g>
		<g>
			<defs>
				<path id="SVGID_6_" d="M-16.54,550.83c0-111.75-90.59-202.33-202.33-202.33c-111.75,0-202.33,90.59-202.33,202.33
					c0,55.86,22.64,106.44,59.24,143.05l247.41,30.33C-55.82,688.8-16.54,624.41-16.54,550.83z"/>
			</defs>
			<clipPath id="SVGID_2_">
				<use xlink:href="#SVGID_6_"  style="overflow:visible;"/>
			</clipPath>
			<path style="clip-path:url(#SVGID_2_);fill:#FCBA40;" d="M-2.08,380.95l-196.37,77.49c-4.87,1.92-10.37-0.47-12.29-5.34
				l-80.77-204.68c-1.92-4.87,0.47-10.37,5.34-12.29l196.37-77.49c4.87-1.92,10.37,0.47,12.29,5.34L3.26,368.65
				C5.18,373.52,2.79,379.03-2.08,380.95z"/>
		</g>
	</g>
</g>
</svg>
