<?xml version="1.0" encoding="utf-8"?>
<!-- Generator: Adobe Illustrator 24.1.1, SVG Export Plug-In . SVG Version: 6.00 Build 0)  -->
<svg version="1.1" id="Layer_1" xmlns="http://www.w3.org/2000/svg" xmlns:xlink="http://www.w3.org/1999/xlink" x="0px" y="0px"
	 viewBox="0 0 200 200" style="enable-background:new 0 0 200 200;" xml:space="preserve">
<style type="text/css">
	.st0{fill:url(#SVGID_1_);}
	.st1{fill:#FFFFFF;}
	.st2{fill:url(#SVGID_2_);}
	.st3{fill:#FBDB2C;}
	.st4{fill:url(#SVGID_3_);}
	.st5{fill:#6FC7B7;}
	.st6{filter:url(#Adobe_OpacityMaskFilter);}
	.st7{mask:url(#SVGID_4_);}
	.st8{fill:#929497;}
	.st9{fill:url(#SVGID_5_);}
	.st10{clip-path:url(#SVGID_7_);fill:#FCBA40;}
	.st11{opacity:0.66;clip-path:url(#SVGID_7_);fill:#F68C28;}
	.st12{opacity:0.39;clip-path:url(#SVGID_7_);fill:#F6921E;}
	.st13{fill:url(#SVGID_8_);}
	.st14{fill:url(#SVGID_9_);}
	.st15{fill:url(#SVGID_10_);}
	.st16{fill:url(#SVGID_11_);}
	.st17{fill:url(#SVGID_12_);}
	.st18{fill:url(#SVGID_13_);}
	.st19{fill:url(#SVGID_14_);}
	.st20{fill:url(#SVGID_15_);}
	.st21{fill:url(#SVGID_16_);}
	.st22{fill:url(#SVGID_17_);}
	.st23{fill:url(#SVGID_18_);}
	.st24{fill:url(#SVGID_19_);}
	.st25{fill:#009489;}
	.st26{fill:#8CC63F;}
	.st27{fill:none;stroke:#999999;stroke-width:9.9213;stroke-linecap:round;stroke-miterlimit:10;}
	.st28{fill:none;stroke:#009489;stroke-width:12.8279;stroke-miterlimit:10;}
	.st29{fill:#448D42;}
	.st30{fill:#B9CD33;}
	.st31{fill:#445E2F;}
	.st32{fill:#837B75;}
	.st33{fill:#B3B3B3;}
	.st34{fill:#FF0000;}
	.st35{fill:none;stroke:#B3B3B3;stroke-width:10.4533;stroke-linecap:round;stroke-miterlimit:10;}
	.st36{fill:none;stroke:#808080;stroke-width:8.5039;stroke-miterlimit:10;}
	.st37{fill:#FFFFFF;stroke:#808080;stroke-width:8.5039;stroke-linecap:round;stroke-linejoin:round;stroke-miterlimit:10;}
	.st38{fill:none;stroke:#808080;stroke-width:8.5039;stroke-linecap:round;stroke-linejoin:round;stroke-miterlimit:10;}
	.st39{fill:#CCCCCC;}
</style>
<g>
	<g>
		
			<radialGradient id="SVGID_1_" cx="177.4914" cy="166.4579" r="248.3665" gradientTransform="matrix(0.9257 0 0 0.9955 7.437 0.4508)" gradientUnits="userSpaceOnUse">
			<stop  offset="0.2016" style="stop-color:#6DC5AE"/>
			<stop  offset="0.9944" style="stop-color:#009489"/>
		</radialGradient>
		<path class="st0" d="M184.14,43.73c-9.49-19.02-25.41-30.95-41.56-31.12c-0.13,0-0.26,0-0.39,0c-11.29,0-27.27,5.46-42.07,29.96
			C85.33,18.06,69.36,12.6,58.06,12.6c-0.13,0-0.26,0-0.39,0c-16.15,0.18-32.07,12.1-41.56,31.12C6.63,62.74,2.3,92.67,18.58,119.64
			c14.91,24.7,40.98,46.61,79.69,66.98l1.86,0.98l1.86-0.98c38.71-20.37,64.78-42.28,79.69-66.98
			C197.96,92.67,193.62,62.74,184.14,43.73z M138.46,108.64c0,2.3-1.86,4.16-4.16,4.16h-21.68v21.68c0,2.3-1.86,4.16-4.16,4.16H91.8
			c-2.3,0-4.16-1.86-4.16-4.16v-21.68H65.96c-2.3,0-4.16-1.86-4.16-4.16V91.99c0-2.3,1.86-4.16,4.16-4.16h21.68V66.15
			c0-2.3,1.86-4.16,4.16-4.16h16.65c2.3,0,4.16,1.86,4.16,4.16v18.2l0.04,3.48h21.64c2.3,0,4.16,1.86,4.16,4.16V108.64z"/>
	</g>
</g>
</svg>
