<?xml version="1.0" encoding="utf-8"?>
<!-- Generator: Adobe Illustrator 24.1.1, SVG Export Plug-In . SVG Version: 6.00 Build 0)  -->
<svg version="1.1" id="Layer_1" xmlns="http://www.w3.org/2000/svg" xmlns:xlink="http://www.w3.org/1999/xlink" x="0px" y="0px"
	 viewBox="0 0 170 170" style="enable-background:new 0 0 170 170;" xml:space="preserve">
<style type="text/css">
	.st0{fill:url(#SVGID_1_);}
	.st1{fill:#FFFFFF;}
	.st2{fill:url(#SVGID_2_);}
	.st3{fill:#FBDB2C;}
	.st4{fill:url(#SVGID_3_);}
	.st5{fill:#6FC7B7;}
	.st6{filter:url(#Adobe_OpacityMaskFilter);}
	.st7{mask:url(#SVGID_4_);}
	.st8{fill:#929497;}
	.st9{fill:url(#SVGID_5_);}
	.st10{clip-path:url(#SVGID_7_);fill:#FCBA40;}
	.st11{opacity:0.66;clip-path:url(#SVGID_7_);fill:#F68C28;}
	.st12{opacity:0.39;clip-path:url(#SVGID_7_);fill:#F6921E;}
	.st13{fill:url(#SVGID_8_);}
	.st14{fill:url(#SVGID_9_);}
	.st15{fill:url(#SVGID_10_);}
	.st16{fill:url(#SVGID_11_);}
	.st17{fill:url(#SVGID_12_);}
	.st18{fill:url(#SVGID_13_);}
	.st19{fill:url(#SVGID_14_);}
	.st20{fill:url(#SVGID_15_);}
	.st21{fill:url(#SVGID_16_);}
	.st22{fill:url(#SVGID_17_);}
	.st23{fill:url(#SVGID_18_);}
	.st24{fill:url(#SVGID_19_);}
	.st25{fill:#009489;}
	.st26{fill:#8CC63F;}
	.st27{fill:none;stroke:#999999;stroke-width:9.9213;stroke-linecap:round;stroke-miterlimit:10;}
	.st28{fill:none;stroke:#009489;stroke-width:12.8279;stroke-miterlimit:10;}
	.st29{fill:#448D42;}
	.st30{fill:#B9CD33;}
	.st31{fill:#445E2F;}
	.st32{fill:#837B75;}
	.st33{fill:#B3B3B3;}
	.st34{fill:#FF0000;}
	.st35{fill:none;stroke:#B3B3B3;stroke-width:10.4533;stroke-linecap:round;stroke-miterlimit:10;}
	.st36{fill:none;stroke:#808080;stroke-width:8.5039;stroke-miterlimit:10;}
	.st37{fill:#FFFFFF;stroke:#808080;stroke-width:8.5039;stroke-linecap:round;stroke-linejoin:round;stroke-miterlimit:10;}
	.st38{fill:none;stroke:#808080;stroke-width:8.5039;stroke-linecap:round;stroke-linejoin:round;stroke-miterlimit:10;}
	.st39{fill:#CCCCCC;}
</style>
<g>
	<circle class="st25" cx="86.7" cy="84.74" r="75"/>
	<path class="st1" d="M97.03,85.97c5.74-3.81,9.54-10.33,9.54-17.72c0-11.72-9.54-21.26-21.26-21.26
		c-11.72,0-21.26,9.54-21.26,21.26c0,7.39,3.8,13.91,9.54,17.72c-12.99,4.79-22.29,17.26-22.29,31.89h5.67
		c0-15.63,12.72-28.35,28.35-28.35c15.63,0,28.35,12.72,28.35,28.35h5.67C119.32,103.23,110.02,90.76,97.03,85.97z M85.3,83.84
		c-8.6,0-15.59-6.99-15.59-15.59s6.99-15.59,15.59-15.59s15.59,6.99,15.59,15.59S93.9,83.84,85.3,83.84z"/>
</g>
</svg>
