<?xml version="1.0" encoding="utf-8"?>
<!-- Generator: Adobe Illustrator 24.1.1, SVG Export Plug-In . SVG Version: 6.00 Build 0)  -->
<svg version="1.1" id="Layer_1" xmlns="http://www.w3.org/2000/svg" xmlns:xlink="http://www.w3.org/1999/xlink" x="0px" y="0px"
	 viewBox="0 0 200 200" style="enable-background:new 0 0 200 200;" xml:space="preserve">
<style type="text/css">
	.st0{fill:url(#SVGID_1_);}
	.st1{fill:#FFFFFF;}
	.st2{fill:url(#SVGID_2_);}
	.st3{fill:#FBDB2C;}
	.st4{fill:url(#SVGID_3_);}
	.st5{fill:#6FC7B7;}
	.st6{filter:url(#Adobe_OpacityMaskFilter);}
	.st7{mask:url(#SVGID_4_);}
	.st8{fill:#929497;}
	.st9{fill:url(#SVGID_5_);}
	.st10{clip-path:url(#SVGID_7_);fill:#FCBA40;}
	.st11{opacity:0.66;clip-path:url(#SVGID_7_);fill:#F68C28;}
	.st12{opacity:0.39;clip-path:url(#SVGID_7_);fill:#F6921E;}
	.st13{fill:url(#SVGID_8_);}
	.st14{fill:url(#SVGID_9_);}
	.st15{fill:url(#SVGID_10_);}
	.st16{fill:url(#SVGID_11_);}
	.st17{fill:url(#SVGID_12_);}
	.st18{fill:url(#SVGID_13_);}
	.st19{fill:url(#SVGID_14_);}
	.st20{fill:url(#SVGID_15_);}
	.st21{fill:url(#SVGID_16_);}
	.st22{fill:url(#SVGID_17_);}
	.st23{fill:url(#SVGID_18_);}
	.st24{fill:url(#SVGID_19_);}
	.st25{fill:#009489;}
	.st26{fill:#8CC63F;}
	.st27{fill:none;stroke:#999999;stroke-width:9.9213;stroke-linecap:round;stroke-miterlimit:10;}
	.st28{fill:none;stroke:#009489;stroke-width:12.8279;stroke-miterlimit:10;}
	.st29{fill:#448D42;}
	.st30{fill:#B9CD33;}
	.st31{fill:#445E2F;}
	.st32{fill:#837B75;}
	.st33{fill:#B3B3B3;}
	.st34{fill:#FF0000;}
	.st35{fill:none;stroke:#B3B3B3;stroke-width:10.4533;stroke-linecap:round;stroke-miterlimit:10;}
	.st36{fill:none;stroke:#808080;stroke-width:8.5039;stroke-miterlimit:10;}
	.st37{fill:#FFFFFF;stroke:#808080;stroke-width:8.5039;stroke-linecap:round;stroke-linejoin:round;stroke-miterlimit:10;}
	.st38{fill:none;stroke:#808080;stroke-width:8.5039;stroke-linecap:round;stroke-linejoin:round;stroke-miterlimit:10;}
	.st39{fill:#CCCCCC;}
</style>
<g>
	<linearGradient id="SVGID_1_" gradientUnits="userSpaceOnUse" x1="113.8275" y1="31.5023" x2="56.317" y2="186.6062">
		<stop  offset="0" style="stop-color:#CCDB29"/>
		<stop  offset="1" style="stop-color:#74BF44"/>
	</linearGradient>
	<path class="st0" d="M182.97,49.46c-6.65,0-57.95-16.94-77.53-40.41c0,0-0.78-2.48-5.44-4.04c-4.66,1.57-5.44,4.04-5.44,4.04
		C74.99,32.52,23.68,49.46,17.03,49.46c-6.65,0-5.25,9.47-5.25,9.47c7.35,72.32,37.43,105.02,37.43,105.02
		C67.93,184.52,100,195,100,195s32.07-10.48,50.79-31.05c0,0,30.08-32.7,37.43-105.02C188.21,58.93,189.61,49.46,182.97,49.46z"/>
	<path class="st1" d="M110.84,98.87c5.3-3.52,8.81-9.54,8.81-16.38c0-10.84-8.81-19.65-19.65-19.65S80.35,71.66,80.35,82.5
		c0,6.83,3.51,12.85,8.81,16.38c-12,4.43-20.6,15.95-20.6,29.47h5.24c0-14.45,11.75-26.2,26.2-26.2c14.45,0,26.2,11.75,26.2,26.2
		h5.24C131.44,114.83,122.84,103.3,110.84,98.87z M100,96.91c-7.95,0-14.41-6.46-14.41-14.41S92.05,68.09,100,68.09
		s14.41,6.46,14.41,14.41S107.95,96.91,100,96.91z"/>
</g>
<g>
	<g>
		<g>
			<defs>
				<path id="SVGID_6_" d="M425.46,550.83c0-111.75-90.59-202.33-202.33-202.33c-111.75,0-202.33,90.59-202.33,202.33
					c0,55.86,22.64,106.44,59.24,143.05l247.41,30.33C386.18,688.8,425.46,624.41,425.46,550.83z"/>
			</defs>
			<clipPath id="SVGID_2_">
				<use xlink:href="#SVGID_6_"  style="overflow:visible;"/>
			</clipPath>
			<path style="clip-path:url(#SVGID_2_);fill:#FCBA40;" d="M439.92,380.95l-196.37,77.49c-4.87,1.92-10.37-0.47-12.29-5.34
				l-80.77-204.68c-1.92-4.87,0.47-10.37,5.34-12.29l196.37-77.49c4.87-1.92,10.37,0.47,12.29,5.34l80.77,204.68
				C447.18,373.52,444.79,379.03,439.92,380.95z"/>
		</g>
	</g>
</g>
</svg>
