<?xml version="1.0" encoding="utf-8"?>
<!-- Generator: Adobe Illustrator 24.1.1, SVG Export Plug-In . SVG Version: 6.00 Build 0)  -->
<svg version="1.1" id="Layer_1" xmlns="http://www.w3.org/2000/svg" xmlns:xlink="http://www.w3.org/1999/xlink" x="0px" y="0px"
	 viewBox="0 0 170 170" style="enable-background:new 0 0 170 170;" xml:space="preserve">
<style type="text/css">
	.st0{fill:url(#SVGID_1_);}
	.st1{fill:#FFFFFF;}
	.st2{fill:url(#SVGID_2_);}
	.st3{fill:#FBDB2C;}
	.st4{fill:url(#SVGID_3_);}
	.st5{fill:#6FC7B7;}
	.st6{filter:url(#Adobe_OpacityMaskFilter);}
	.st7{mask:url(#SVGID_4_);}
	.st8{fill:#929497;}
	.st9{fill:url(#SVGID_5_);}
	.st10{clip-path:url(#SVGID_7_);fill:#FCBA40;}
	.st11{opacity:0.66;clip-path:url(#SVGID_7_);fill:#F68C28;}
	.st12{opacity:0.39;clip-path:url(#SVGID_7_);fill:#F6921E;}
	.st13{fill:url(#SVGID_8_);}
	.st14{fill:url(#SVGID_9_);}
	.st15{fill:url(#SVGID_10_);}
	.st16{fill:url(#SVGID_11_);}
	.st17{fill:url(#SVGID_12_);}
	.st18{fill:url(#SVGID_13_);}
	.st19{fill:url(#SVGID_14_);}
	.st20{fill:url(#SVGID_15_);}
	.st21{fill:url(#SVGID_16_);}
	.st22{fill:url(#SVGID_17_);}
	.st23{fill:url(#SVGID_18_);}
	.st24{fill:url(#SVGID_19_);}
	.st25{fill:#009489;}
	.st26{fill:#8CC63F;}
	.st27{fill:none;stroke:#999999;stroke-width:9.9213;stroke-linecap:round;stroke-miterlimit:10;}
	.st28{fill:none;stroke:#009489;stroke-width:12.8279;stroke-miterlimit:10;}
	.st29{fill:#448D42;}
	.st30{fill:#B9CD33;}
	.st31{fill:#445E2F;}
	.st32{fill:#837B75;}
	.st33{fill:#B3B3B3;}
	.st34{fill:#FF0000;}
	.st35{fill:none;stroke:#B3B3B3;stroke-width:10.4533;stroke-linecap:round;stroke-miterlimit:10;}
	.st36{fill:none;stroke:#808080;stroke-width:8.5039;stroke-miterlimit:10;}
	.st37{fill:#FFFFFF;stroke:#808080;stroke-width:8.5039;stroke-linecap:round;stroke-linejoin:round;stroke-miterlimit:10;}
	.st38{fill:none;stroke:#808080;stroke-width:8.5039;stroke-linecap:round;stroke-linejoin:round;stroke-miterlimit:10;}
	.st39{fill:#CCCCCC;}
</style>
<g>
	<g>
		<path class="st33" d="M86.17,18.25c36.67,0,66.5,29.83,66.5,66.5s-29.83,66.5-66.5,66.5s-66.5-29.83-66.5-66.5
			S49.51,18.25,86.17,18.25 M86.17,9.74c-41.42,0-75,33.58-75,75s33.58,75,75,75s75-33.58,75-75S127.59,9.74,86.17,9.74L86.17,9.74z
			"/>
	</g>
	<path class="st33" d="M98.81,85.82c5.97-3.96,9.92-10.74,9.92-18.43c0-12.2-9.92-22.12-22.12-22.12c-12.2,0-22.12,9.92-22.12,22.12
		c0,7.69,3.95,14.47,9.92,18.43C60.9,90.81,51.22,103.78,51.22,119h5.9c0-16.26,13.23-29.49,29.49-29.49
		c16.26,0,29.49,13.23,29.49,29.49h5.9C122,103.78,112.32,90.81,98.81,85.82z M86.61,83.61c-8.94,0-16.22-7.28-16.22-16.22
		s7.28-16.22,16.22-16.22c8.94,0,16.22,7.28,16.22,16.22S95.55,83.61,86.61,83.61z"/>
</g>
</svg>
