<?xml version="1.0" encoding="utf-8"?>
<!-- Generator: Adobe Illustrator 24.1.1, SVG Export Plug-In . SVG Version: 6.00 Build 0)  -->
<svg version="1.1" id="Layer_1" xmlns="http://www.w3.org/2000/svg" xmlns:xlink="http://www.w3.org/1999/xlink" x="0px" y="0px"
	 viewBox="0 0 837 359" style="enable-background:new 0 0 837 359;" xml:space="preserve">
<style type="text/css">
	.st0{fill:url(#SVGID_1_);}
	.st1{fill:#FFFFFF;}
	.st2{fill:url(#SVGID_2_);}
	.st3{fill:#FBDB2C;}
	.st4{fill:url(#SVGID_3_);}
	.st5{fill:#6FC7B7;}
	.st6{filter:url(#Adobe_OpacityMaskFilter);}
	.st7{mask:url(#SVGID_4_);}
	.st8{fill:#929497;}
	.st9{fill:url(#SVGID_5_);}
	.st10{clip-path:url(#SVGID_7_);fill:#FCBA40;}
	.st11{opacity:0.66;clip-path:url(#SVGID_7_);fill:#F68C28;}
	.st12{opacity:0.39;clip-path:url(#SVGID_7_);fill:#F6921E;}
	.st13{fill:url(#SVGID_8_);}
	.st14{fill:url(#SVGID_9_);}
	.st15{fill:url(#SVGID_10_);}
	.st16{fill:url(#SVGID_11_);}
	.st17{fill:url(#SVGID_12_);}
	.st18{fill:url(#SVGID_13_);}
	.st19{fill:url(#SVGID_14_);}
	.st20{fill:url(#SVGID_15_);}
	.st21{fill:url(#SVGID_16_);}
	.st22{fill:url(#SVGID_17_);}
	.st23{fill:url(#SVGID_18_);}
	.st24{fill:url(#SVGID_19_);}
	.st25{fill:#009489;}
	.st26{fill:#8CC63F;}
	.st27{fill:none;stroke:#999999;stroke-width:9.9213;stroke-linecap:round;stroke-miterlimit:10;}
	.st28{fill:none;stroke:#009489;stroke-width:12.8279;stroke-miterlimit:10;}
	.st29{fill:#448D42;}
	.st30{fill:#B9CD33;}
	.st31{fill:#445E2F;}
	.st32{fill:#837B75;}
	.st33{fill:#B3B3B3;}
	.st34{fill:#FF0000;}
	.st35{fill:none;stroke:#B3B3B3;stroke-width:10.4533;stroke-linecap:round;stroke-miterlimit:10;}
	.st36{fill:none;stroke:#808080;stroke-width:8.5039;stroke-miterlimit:10;}
	.st37{fill:#FFFFFF;stroke:#808080;stroke-width:8.5039;stroke-linecap:round;stroke-linejoin:round;stroke-miterlimit:10;}
	.st38{fill:none;stroke:#808080;stroke-width:8.5039;stroke-linecap:round;stroke-linejoin:round;stroke-miterlimit:10;}
	.st39{fill:#CCCCCC;}
</style>
<g>
	<linearGradient id="SVGID_1_" gradientUnits="userSpaceOnUse" x1="301.3337" y1="257.1068" x2="822.8146" y2="492.2845">
		<stop  offset="0" style="stop-color:#FFFFFF"/>
		<stop  offset="1" style="stop-color:#AADAC5"/>
	</linearGradient>
	<path class="st0" d="M102.52,195.53c-7.99,5.62-15.43,12.46-22.34,20.56c-6.91,8.09-12.52,16.19-16.83,24.28
		c-4.32,8.09-6.86,15.49-7.61,22.18c-0.76,6.69,1.13,11.44,5.67,14.24c3.67,2.38,8.85,2.54,15.54,0.48
		c6.69-2.05,13.92-5.5,21.69-10.36c7.77-4.86,15.7-10.68,23.79-17.48c8.09-6.8,15.48-13.76,22.18-20.88
		c6.69-7.12,12.19-13.97,16.51-20.56c4.31-6.58,6.69-12.14,7.12-16.67c0.65-4.75-0.32-8.79-2.91-12.14
		c-2.59-3.34-6.21-6.26-10.84-8.74c-4.64-2.48-9.87-4.64-15.7-6.47c-5.83-1.83-11.71-3.56-17.64-5.18c-5.94-1.62-11.6-3.29-17-5.02
		c-5.4-1.72-9.93-3.77-13.6-6.15c-4.1-2.59-7.34-5.66-9.71-9.23c-2.38-3.56-4.1-7.28-5.18-11.17c-1.08-3.89-1.57-7.88-1.46-11.98
		c0.1-4.1,0.7-7.98,1.78-11.65c1.72-7.12,5.67-14.02,11.82-20.72c6.15-6.69,13.22-12.57,21.2-17.64
		c7.98-5.07,16.29-8.95,24.93-11.65c8.63-2.7,16.4-3.61,23.31-2.75c6.48,1.08,11.87,2.91,16.19,5.5c4.31,2.59,7.55,7.02,9.71,13.27
		c1.51,5.18,1.51,10.68,0,16.51c-1.51,5.83-3.83,11.39-6.96,16.67c-3.13,5.29-6.75,10.15-10.85,14.57
		c-4.1,4.43-7.99,7.83-11.65,10.2c-1.73,1.29-3.56,2.27-5.5,2.91c-1.94,0.65-3.78,1.08-5.5,1.29c-1.73,0.22-3.07,0.11-4.05-0.32
		c-0.97-0.43-1.24-1.08-0.81-1.94c2.59-4.53,5.34-9.6,8.26-15.22c2.91-5.61,5.66-11.17,8.25-16.67c2.59-5.5,4.75-10.63,6.48-15.38
		c1.72-4.75,2.8-8.52,3.24-11.33c0.43-2.37-0.16-3.66-1.78-3.88c-1.62-0.21-3.62,0-5.99,0.65c-4.1,1.3-9.01,3.35-14.73,6.15
		c-5.72,2.81-11.33,5.99-16.83,9.55c-5.5,3.56-10.36,7.34-14.57,11.33c-4.21,3.99-6.75,7.72-7.61,11.17
		c-1.08,2.16-1.35,4.21-0.81,6.15c0.54,1.94,1.4,3.72,2.59,5.34c1.18,1.62,2.59,3.02,4.21,4.21c1.62,1.19,3.08,2.22,4.37,3.08
		c5.83,3.67,11.66,6.85,17.48,9.55c5.83,2.7,11.49,5.5,16.99,8.42c5.5,2.91,10.85,6.05,16.03,9.39c5.18,3.35,10.03,7.39,14.57,12.14
		c6.9,7.34,11.27,15.43,13.11,24.28c1.83,8.85,1.24,17.59-1.78,26.22c-3.46,10.79-9.23,21.42-17.32,31.89
		c-8.09,10.47-17.43,19.7-28,27.68c-10.58,7.99-21.64,14.13-33.18,18.45c-11.55,4.31-22.39,5.83-32.53,4.53
		c-10.36-1.51-18.78-4.97-25.25-10.36c-6.48-5.39-10.79-12.95-12.95-22.66c-1.72-8.63-1.62-16.83,0.32-24.6
		c1.94-7.77,5.18-14.89,9.71-21.36c4.53-6.48,9.92-12.3,16.19-17.48c6.25-5.18,12.84-9.39,19.75-12.62
		c4.1-2.16,8.31-3.83,12.62-5.02c4.31-1.18,8.63-2.1,12.95-2.75c4.1-0.86,6.15-0.7,6.15,0.49c0,1.19-0.97,2.75-2.91,4.69
		c-1.94,1.94-4.26,3.94-6.96,5.99C105.16,193.53,103.38,194.88,102.52,195.53z"/>
	<linearGradient id="SVGID_2_" gradientUnits="userSpaceOnUse" x1="302.3212" y1="254.9171" x2="823.8021" y2="490.0948">
		<stop  offset="0" style="stop-color:#FFFFFF"/>
		<stop  offset="1" style="stop-color:#AADAC5"/>
	</linearGradient>
	<path class="st2" d="M265.99,214.63l3.89-3.88h0.32v0.65c0.43,4.97,0,8.69-1.3,11.17c-1.29,2.48-1.94,3.83-1.94,4.05
		c-2.16,3.24-5.08,7.39-8.74,12.46c-3.67,5.07-7.5,10.25-11.49,15.54c-4,5.29-7.83,10.15-11.49,14.57
		c-3.67,4.43-6.58,7.61-8.74,9.55c-2.59,3.03-5.4,5.83-8.42,8.42c-1.08,0.86-2.54,1.62-4.37,2.26c-1.84,0.65-3.72,1.13-5.67,1.46
		c-1.94,0.32-3.83,0.38-5.66,0.16c-1.84-0.22-3.29-0.76-4.37-1.62c-3.67-2.38-6.53-5.24-8.58-8.58c-2.05-3.34-3.07-6.96-3.07-10.85
		c-0.65-11.87,0.38-24.01,3.07-36.42c2.7-12.41,5.88-23.68,9.55-33.83c1.08-3.02,2.59-6.15,4.53-9.39c1.94-1.94,4.21-2.48,6.8-1.62
		c2.59,0.87,4.91,2.65,6.96,5.34c2.05,2.7,3.56,5.99,4.53,9.87c0.97,3.89,0.81,7.77-0.49,11.66c-1.08,3.67-2.05,7.18-2.91,10.52
		c-0.87,3.35-1.84,6.85-2.91,10.52c-0.43,1.73-1.13,4.21-2.1,7.45c-0.97,3.24-2,6.64-3.08,10.2c-1.08,3.56-2.05,6.96-2.91,10.2
		c-0.87,3.24-1.4,5.72-1.62,7.45c-0.44,3.24,0.43,4.1,2.59,2.59c2.15-1.51,5.07-4.1,8.74-7.77c8.84-9.06,17.26-17.86,25.25-26.38
		C250.34,231.84,258.22,223.26,265.99,214.63z M220.67,175.78c-1.51,1.51-2.59,1.51-3.24,0c-2.81-4.31-4.64-8.84-5.5-13.6
		c-0.87-4.74-0.43-9.49,1.29-14.24c0.86-2.8,2.75-5.12,5.67-6.96c2.91-1.83,5.55-2.43,7.93-1.78c1.3,0.43,2.7,1.13,4.21,2.1
		c1.51,0.97,2.48,2.11,2.91,3.4c1.51,5.83,0.7,11.44-2.43,16.83C228.38,166.93,224.77,171.68,220.67,175.78z"/>
	<linearGradient id="SVGID_3_" gradientUnits="userSpaceOnUse" x1="317.6029" y1="221.0316" x2="839.0838" y2="456.2092">
		<stop  offset="0" style="stop-color:#FFFFFF"/>
		<stop  offset="1" style="stop-color:#AADAC5"/>
	</linearGradient>
	<path class="st4" d="M310.94,206.49c-10,11.2-19.35,22.5-28.04,33.93c-8.7,11.43-17.21,22.86-25.54,34.29
		c-1.91,1.67-3.57,2.38-5,2.15c-1.43-0.24-2.68-0.95-3.75-2.15c-1.07-1.19-1.9-2.68-2.5-4.46c-0.59-1.78-1.01-3.39-1.25-4.82
		c-0.47-4.29-0.47-8.98,0-14.11c0.48-5.12,0.95-8.39,1.43-9.82c0.96-4.05,2.2-8.69,3.75-13.93c1.55-5.24,3.15-10.54,4.82-15.9
		c1.66-5.36,3.27-10.6,4.82-15.72c1.54-5.12,3.03-9.7,4.46-13.75c0.95-2.86,2.62-4.58,5-5.18c2.38-0.59,4.7-0.24,6.97,1.07
		c2.26,1.31,4.05,3.52,5.36,6.61c1.31,3.1,1.49,7.03,0.54,11.79c-0.95,4.77-2.02,9.53-3.21,14.29c-1.2,4.77-2.27,9.41-3.21,13.93
		c6.9-7.62,13.75-15.54,20.54-23.75c6.79-8.22,13.4-16.37,19.83-24.47c3.09-2.14,6.31-2.62,9.64-1.43c3.33,1.2,5.83,3.81,7.5,7.86
		c1.9,4.29,2.74,8.69,2.5,13.21c-0.24,4.53-0.84,8.82-1.79,12.86c6.9-7.14,15-14.16,24.29-21.07c9.29-6.9,18.34-12.15,27.15-15.72
		c4.29-1.66,8.22-1.9,11.79-0.71c3.57,1.19,6.67,3.39,9.29,6.61c2.62,3.21,4.58,7.14,5.9,11.79c1.3,4.64,1.84,9.47,1.61,14.47
		c-2.86,5.95-5.6,11.73-8.22,17.32c-2.62,5.6-5,11.13-7.14,16.61c-2.14,5.48-3.87,10.95-5.18,16.43
		c-1.31,5.48-1.85,11.07-1.61,16.79c1.66,1.2,4.46,0.48,8.39-2.14c3.93-2.62,8.39-6.07,13.39-10.36c5-4.29,10.18-8.81,15.54-13.57
		c5.36-4.76,10.06-8.81,14.11-12.14c11.67-9.29,18.09-13.22,19.29-11.79c1.19,1.43-2.14,6.79-10,16.08
		c-7.63,9.05-15.66,17.98-24.11,26.79c-8.46,8.81-17.45,16.43-26.97,22.86c-3.1,2.15-6.67,3.27-10.72,3.39
		c-4.05,0.12-8.04-0.59-11.97-2.14c-3.93-1.55-7.32-3.93-10.18-7.14c-2.86-3.21-4.53-7.2-5-11.97c-0.72-6.19-0.3-12.74,1.25-19.65
		c1.55-6.9,3.63-13.75,6.25-20.54c2.62-6.79,5.59-13.39,8.93-19.83c3.33-6.43,6.43-12.38,9.29-17.86c-0.72-1.9-3.39-1.25-8.04,1.97
		c-4.64,3.21-10.3,7.68-16.97,13.39c-6.67,5.72-13.69,12.15-21.08,19.29c-7.38,7.15-14.17,13.7-20.36,19.65
		c-2.62,2.38-4.59,3.87-5.89,4.46c-1.31,0.6-2.45,0.89-3.39,0.89c-2.38,0-3.93-1.96-4.64-5.89c-0.72-3.93-1.02-8.45-0.89-13.58
		c0.11-5.12,0.54-10.12,1.25-15C309.87,211.79,310.46,208.4,310.94,206.49z"/>
	<linearGradient id="SVGID_4_" gradientUnits="userSpaceOnUse" x1="339.4019" y1="172.6948" x2="860.8828" y2="407.8725">
		<stop  offset="0" style="stop-color:#FFFFFF"/>
		<stop  offset="1" style="stop-color:#AADAC5"/>
	</linearGradient>
	<path style="fill:url(#SVGID_4_);" d="M431.51,254.12c-0.43-8.2,0.43-16.72,2.59-25.58c2.16-8.84,5.4-16.99,9.71-24.44
		c4.31-7.45,9.76-13.54,16.35-18.29c6.58-4.75,14.29-7.23,23.15-7.45c4.53,1.08,8.03,3.35,10.52,6.8c2.48,3.45,3.18,7.66,2.1,12.62
		c-0.87,4.75-2.1,8.8-3.72,12.14c-1.62,3.35-4.37,6.86-8.25,10.52c-1.94,1.73-4.64,4-8.09,6.8c-3.46,2.81-6.8,5.72-10.04,8.74
		c-3.24,3.02-6.04,6.1-8.42,9.23c-2.38,3.13-3.56,5.78-3.56,7.93c-0.65,5.61,0.21,9.23,2.59,10.85c2.37,1.62,5.45,2.26,9.23,1.94
		c3.77-0.32,7.61-1.35,11.49-3.07c3.89-1.72,7.01-3.24,9.39-4.53c2.8-1.94,5.93-4.37,9.39-7.28c3.45-2.91,6.9-5.99,10.36-9.23
		c3.45-3.24,6.8-6.36,10.03-9.39c3.24-3.02,5.93-5.5,8.09-7.45c1.72-1.72,3.29-3.34,4.7-4.86c1.4-1.51,3.07-2.8,5.02-3.88
		c1.72-0.43,3.07-0.54,4.05-0.32c0.97,0.22,0.81,1.84-0.49,4.86c-1.73,3.67-3.83,7.12-6.31,10.36c-2.48,3.24-5.13,6.48-7.93,9.71
		c-3.88,4.32-8.04,8.85-12.46,13.6c-4.43,4.75-9.06,9.12-13.92,13.11c-4.86,3.99-9.93,7.45-15.21,10.36
		c-5.29,2.91-10.74,4.8-16.35,5.66c-9.93,0.65-18.08-1.4-24.44-6.15C434.7,272.68,431.51,264.92,431.51,254.12z M483.31,193.26
		c-5.83,2.16-10.42,4.96-13.76,8.42c-3.35,3.45-5.78,8.53-7.28,15.21c4.75-3.45,9.01-6.96,12.79-10.52
		C478.82,202.81,481.58,198.44,483.31,193.26z"/>
	<linearGradient id="SVGID_5_" gradientUnits="userSpaceOnUse" x1="391.0222" y1="58.2324" x2="912.5031" y2="293.4101">
		<stop  offset="0" style="stop-color:#FFFFFF"/>
		<stop  offset="1" style="stop-color:#AADAC5"/>
	</linearGradient>
	<path class="st9" d="M582.69,193.26c0-0.43,0.1-0.75,0.32-0.97c0-0.21,0.1-0.32,0.32-0.32c6.69-14.24,13.32-28,19.91-41.27
		c6.58-13.27,13.27-26.06,20.07-38.36c6.8-12.3,13.92-24.17,21.37-35.61c7.44-11.44,15.38-22.55,23.79-33.34
		c4.74-5.39,8.58-7.77,11.49-7.12c2.91,0.65,5.07,2.86,6.48,6.64c1.4,3.78,2.21,8.25,2.43,13.43c0.21,5.18,0.11,9.39-0.32,12.63
		c-3.24,13.38-7.61,26.76-13.11,40.14c-5.5,13.38-11.71,26.71-18.61,39.98c-6.91,13.27-14.36,26.49-22.34,39.66
		c-7.99,13.17-16.08,26.33-24.28,39.49c-1.08,1.3-1.89,2.65-2.43,4.05c-0.54,1.41-1.03,2.97-1.46,4.69
		c-0.43,1.94-0.92,4.7-1.46,8.26c-0.54,3.56-0.86,7.28-0.97,11.17c-0.11,3.89,0.16,7.45,0.81,10.68c0.65,3.24,1.83,5.29,3.56,6.15
		c2.59,1.3,6.36,1.03,11.33-0.81c4.96-1.83,10.25-4.58,15.86-8.26c5.61-3.67,11.27-7.87,17-12.62c5.72-4.75,10.62-9.28,14.73-13.6
		c0.43-0.43,1.08-0.38,1.94,0.16c0.86,0.54,1.56,1.35,2.1,2.43c0.54,1.08,0.75,2.32,0.65,3.72c-0.11,1.4-0.92,2.75-2.43,4.05
		c-4.97,4.32-11.06,9.77-18.29,16.35c-7.23,6.58-14.79,12.68-22.66,18.29c-7.88,5.61-15.6,9.87-23.15,12.79
		c-7.56,2.91-14.03,2.97-19.42,0.16c-4.97-2.59-8.47-6.75-10.52-12.46c-2.05-5.72-3.19-11.98-3.4-18.78
		c-0.22-6.8,0.05-13.49,0.81-20.07c0.75-6.58,1.46-11.82,2.1-15.7c-0.43,0.44-0.81,1.03-1.13,1.78c-0.32,0.76-0.7,1.46-1.13,2.1
		c-3.02,3.46-6.47,7.61-10.36,12.46c-3.88,4.86-8.15,9.34-12.79,13.43c-4.64,4.1-9.55,7.23-14.73,9.39
		c-5.18,2.16-10.47,2.26-15.86,0.32c-3.02-1.72-5.67-3.83-7.93-6.31c-2.26-2.48-3.4-5.77-3.4-9.87c0-7.98,1.57-16.08,4.69-24.28
		c3.13-8.2,7.39-15.48,12.79-21.85c5.39-6.37,11.76-11.44,19.1-15.22c7.34-3.77,15.21-5.34,23.63-4.69c2.37,0.43,4.8,1.03,7.29,1.78
		c2.48,0.76,4.58,2.1,6.31,4.05L582.69,193.26z M531.86,242.14l0.65,0.97c7.33-5.83,14.73-11.6,22.17-17.32
		c7.45-5.72,15.16-11.38,23.15-17c-4.53-2.15-9.44-2.43-14.73-0.81c-5.29,1.62-10.25,4.32-14.89,8.09
		c-4.64,3.78-8.53,8.09-11.65,12.95C533.42,233.89,531.86,238.26,531.86,242.14z M677.21,80.61c-13.6,20.94-25.68,42.41-36.26,64.42
		c-10.58,22.01-19.86,44.78-27.84,68.31c4.96-9.06,10.84-19.42,17.64-31.08c6.8-11.66,13.43-23.58,19.91-35.77
		c6.48-12.19,12.19-24.06,17.16-35.61C672.79,99.33,675.92,89.24,677.21,80.61z"/>
	<linearGradient id="SVGID_7_" gradientUnits="userSpaceOnUse" x1="380.466" y1="81.6395" x2="901.9469" y2="316.8172">
		<stop  offset="0" style="stop-color:#FFFFFF"/>
		<stop  offset="1" style="stop-color:#AADAC5"/>
	</linearGradient>
	<path style="fill:url(#SVGID_7_);" d="M728.36,214.63l3.89-3.88h0.32v0.65c0.43,4.97,0,8.69-1.3,11.17
		c-1.29,2.48-1.94,3.83-1.94,4.05c-2.16,3.24-5.08,7.39-8.74,12.46c-3.67,5.07-7.5,10.25-11.49,15.54
		c-4,5.29-7.83,10.15-11.49,14.57c-3.67,4.43-6.58,7.61-8.74,9.55c-2.59,3.03-5.4,5.83-8.42,8.42c-1.08,0.86-2.54,1.62-4.37,2.26
		c-1.84,0.65-3.72,1.13-5.67,1.46c-1.94,0.32-3.83,0.38-5.66,0.16c-1.84-0.22-3.29-0.76-4.37-1.62c-3.67-2.38-6.53-5.24-8.58-8.58
		c-2.05-3.34-3.07-6.96-3.07-10.85c-0.65-11.87,0.38-24.01,3.07-36.42c2.7-12.41,5.88-23.68,9.55-33.83
		c1.08-3.02,2.59-6.15,4.53-9.39c1.94-1.94,4.21-2.48,6.8-1.62c2.59,0.87,4.91,2.65,6.96,5.34c2.05,2.7,3.56,5.99,4.53,9.87
		c0.97,3.89,0.81,7.77-0.49,11.66c-1.08,3.67-2.05,7.18-2.91,10.52c-0.87,3.35-1.84,6.85-2.91,10.52c-0.43,1.73-1.13,4.21-2.1,7.45
		c-0.97,3.24-2,6.64-3.08,10.2c-1.08,3.56-2.05,6.96-2.91,10.2c-0.87,3.24-1.4,5.72-1.62,7.45c-0.44,3.24,0.43,4.1,2.59,2.59
		c2.15-1.51,5.07-4.1,8.74-7.77c8.84-9.06,17.26-17.86,25.25-26.38C712.71,231.84,720.59,223.26,728.36,214.63z M683.04,175.78
		c-1.51,1.51-2.59,1.51-3.24,0c-2.81-4.31-4.64-8.84-5.5-13.6c-0.87-4.74-0.43-9.49,1.29-14.24c0.86-2.8,2.75-5.12,5.67-6.96
		c2.91-1.83,5.55-2.43,7.93-1.78c1.3,0.43,2.7,1.13,4.21,2.1c1.51,0.97,2.48,2.11,2.91,3.4c1.51,5.83,0.7,11.44-2.43,16.83
		C690.75,166.93,687.13,171.68,683.04,175.78z"/>
	<linearGradient id="SVGID_8_" gradientUnits="userSpaceOnUse" x1="377.8198" y1="87.5071" x2="899.3007" y2="322.6848">
		<stop  offset="0" style="stop-color:#FFFFFF"/>
		<stop  offset="1" style="stop-color:#AADAC5"/>
	</linearGradient>
	<path class="st13" d="M733.54,245.38c-4.32-6.04-8.58-12.19-12.79-18.45c-4.21-6.26-6.31-13.16-6.31-20.72
		c0-8.42,2.43-16.35,7.28-23.79c4.86-7.44,10.41-13.43,16.67-17.97c2.59-1.72,5.23-3.13,7.93-4.21c2.69-1.08,5.55-0.97,8.58,0.32
		c1.3,0.65,2.64,1.13,4.05,1.46c1.4,0.32,2.64,0.7,3.72,1.13c1.08,0.43,2.27,1.08,3.56,1.94c1.3,0.87,1.94,2.05,1.94,3.56
		c0,6.04,0.16,10.95,0.49,14.73s0.81,7.02,1.46,9.71c0.65,2.7,1.29,5.07,1.94,7.12c0.65,2.05,1.29,4.26,1.94,6.64
		c0.43,2.16,0.32,3.99-0.32,5.5c-0.65,1.51-2.27,1.73-4.86,0.65c-4.75-1.72-8.25-5.18-10.52-10.36c-2.27-5.18-3.94-9.93-5.02-14.24
		c-0.22-0.86-0.76-2.37-1.62-4.53c-0.87-2.15-1.4-3.67-1.62-4.53c-1.73-0.43-3.78,0.16-6.15,1.78c-2.37,1.62-4.48,3.83-6.31,6.64
		c-1.84,2.81-3.03,6.04-3.56,9.71c-0.54,3.67,0.16,7.34,2.11,11.01c0.86,1.3,2.1,2.86,3.72,4.69c1.62,1.84,3.24,3.72,4.86,5.67
		c1.62,1.94,3.24,3.83,4.86,5.66c1.62,1.84,2.96,3.3,4.05,4.37c1.29,1.3,2.16,2,2.59,2.11c0.43,0.11,1.51-0.16,3.24-0.81
		c2.16-1.08,5.45-2.48,9.87-4.21c4.42-1.72,9.06-3.45,13.92-5.18c4.86-1.73,9.49-3.18,13.92-4.37c4.42-1.18,7.82-1.78,10.2-1.78
		c1.51,0,2.59,0.54,3.24,1.62c0.65,0.65,0.54,1.51-0.32,2.59c-0.86,1.08-2,2.16-3.4,3.24c-1.41,1.08-2.86,2.05-4.37,2.91
		c-1.52,0.87-2.49,1.41-2.92,1.62c-3.67,2.16-8.31,4.59-13.92,7.28c-5.61,2.7-10.47,5.34-14.57,7.93c-0.43,0.43-1.24,0.87-2.43,1.3
		c-1.19,0.43-2.1,0.86-2.75,1.29c2.59,5.83,4.42,10.85,5.5,15.05c1.08,4.21,1.46,8.26,1.13,12.14c-0.32,3.88-1.13,7.83-2.43,11.82
		c-1.3,3.99-3.02,8.58-5.18,13.76c-3.02,4.96-6.1,9.71-9.23,14.24c-3.13,4.53-6.64,8.63-10.52,12.3c-3.89,3.67-8.09,6.58-12.63,8.74
		c-4.53,2.16-9.5,3.24-14.89,3.24c-3.02,0-5.93-0.38-8.74-1.13c-2.8-0.76-5.18-2.32-7.12-4.69c-4.96-5.4-7.77-11.28-8.42-17.64
		c-0.65-6.37-0.1-12.68,1.62-18.94c1.29-3.89,2.91-7.45,4.86-10.68c4.75-8.2,9.98-15.16,15.7-20.88
		C721.29,256.01,727.28,250.56,733.54,245.38z M744.55,259.95c-2.38,2.38-5.61,5.77-9.71,10.2c-4.1,4.43-7.93,9.23-11.49,14.41
		c-3.56,5.18-6.47,10.3-8.74,15.38c-2.26,5.07-2.86,9.44-1.78,13.11c4.31-1.94,8.74-5.13,13.27-9.55
		c4.53-4.43,8.52-9.28,11.98-14.57c3.45-5.29,5.88-10.52,7.28-15.7C746.75,268.04,746.49,263.62,744.55,259.95z"/>
</g>
</svg>
