<?xml version="1.0" encoding="utf-8"?>
<!-- Generator: Adobe Illustrator 24.1.1, SVG Export Plug-In . SVG Version: 6.00 Build 0)  -->
<svg version="1.1" id="Layer_1" xmlns="http://www.w3.org/2000/svg" xmlns:xlink="http://www.w3.org/1999/xlink" x="0px" y="0px"
	 viewBox="0 0 408 156.65" style="enable-background:new 0 0 408 156.65;" xml:space="preserve">
<style type="text/css">
	.st0{fill:url(#SVGID_1_);}
	.st1{fill:url(#SVGID_2_);}
	.st2{fill:url(#SVGID_3_);}
	.st3{fill:url(#SVGID_4_);}
	.st4{fill:url(#SVGID_5_);}
	.st5{fill:url(#SVGID_6_);}
	.st6{fill:url(#SVGID_7_);}
</style>
<g>
	<radialGradient id="SVGID_1_" cx="445.3223" cy="179.4793" r="300.1362" gradientUnits="userSpaceOnUse">
		<stop  offset="0.2016" style="stop-color:#6DC6AF"/>
		<stop  offset="0.9944" style="stop-color:#05948A"/>
	</radialGradient>
	<path class="st0" d="M44.67,88.07c-3.98,2.8-7.68,6.2-11.12,10.23c-3.44,4.03-6.23,8.06-8.38,12.09
		c-2.15,4.03-3.41,7.71-3.79,11.04c-0.38,3.33,0.56,5.7,2.82,7.09c1.83,1.18,4.4,1.26,7.73,0.24c3.33-1.02,6.93-2.74,10.8-5.16
		c3.87-2.42,7.82-5.32,11.84-8.7c4.03-3.38,7.71-6.85,11.04-10.39c3.33-3.54,6.07-6.95,8.22-10.23c2.15-3.27,3.33-6.04,3.54-8.3
		c0.32-2.36-0.16-4.38-1.45-6.04c-1.29-1.66-3.09-3.12-5.4-4.35c-2.31-1.23-4.92-2.31-7.82-3.22c-2.9-0.91-5.83-1.77-8.78-2.58
		c-2.96-0.81-5.78-1.64-8.46-2.5c-2.69-0.86-4.94-1.88-6.77-3.06c-2.04-1.29-3.65-2.82-4.83-4.59c-1.18-1.77-2.04-3.63-2.58-5.56
		c-0.54-1.93-0.78-3.92-0.73-5.96c0.05-2.04,0.35-3.97,0.89-5.8c0.86-3.54,2.82-6.98,5.88-10.31c3.06-3.33,6.58-6.26,10.56-8.78
		c3.97-2.52,8.11-4.46,12.41-5.8c4.3-1.34,8.16-1.8,11.6-1.37c3.22,0.54,5.91,1.45,8.06,2.74c2.15,1.29,3.76,3.49,4.84,6.61
		c0.75,2.58,0.75,5.32,0,8.22c-0.75,2.9-1.91,5.67-3.46,8.3c-1.56,2.63-3.36,5.05-5.4,7.25c-2.04,2.2-3.98,3.9-5.8,5.08
		c-0.86,0.64-1.77,1.13-2.74,1.45c-0.97,0.32-1.88,0.54-2.74,0.64c-0.86,0.11-1.53,0.06-2.01-0.16c-0.48-0.21-0.62-0.54-0.4-0.97
		c1.29-2.26,2.66-4.78,4.11-7.58c1.45-2.79,2.82-5.56,4.11-8.3c1.29-2.74,2.36-5.29,3.22-7.65c0.86-2.36,1.4-4.24,1.61-5.64
		c0.21-1.18-0.08-1.82-0.89-1.93c-0.81-0.11-1.8,0-2.98,0.32c-2.04,0.65-4.49,1.67-7.33,3.06c-2.85,1.4-5.64,2.98-8.38,4.75
		c-2.74,1.77-5.16,3.65-7.25,5.64c-2.1,1.99-3.36,3.84-3.79,5.56c-0.54,1.07-0.67,2.1-0.4,3.06c0.27,0.97,0.7,1.85,1.29,2.66
		c0.59,0.8,1.29,1.51,2.09,2.09c0.81,0.59,1.53,1.1,2.18,1.53c2.9,1.83,5.8,3.41,8.7,4.75c2.9,1.34,5.72,2.74,8.46,4.19
		s5.4,3.01,7.98,4.67c2.58,1.67,4.99,3.68,7.25,6.04c3.44,3.65,5.61,7.68,6.53,12.09c0.91,4.41,0.62,8.76-0.89,13.05
		c-1.72,5.37-4.59,10.66-8.62,15.87c-4.03,5.21-8.68,9.81-13.94,13.78c-5.27,3.98-10.77,7.04-16.52,9.19
		c-5.75,2.15-11.15,2.9-16.2,2.26c-5.16-0.75-9.35-2.47-12.57-5.16c-3.22-2.68-5.37-6.45-6.45-11.28c-0.86-4.3-0.8-8.38,0.16-12.25
		c0.97-3.87,2.58-7.41,4.84-10.63c2.26-3.22,4.94-6.12,8.06-8.7c3.11-2.58,6.39-4.67,9.83-6.28c2.04-1.07,4.13-1.91,6.28-2.5
		c2.15-0.59,4.3-1.05,6.45-1.37c2.04-0.43,3.06-0.35,3.06,0.24c0,0.59-0.48,1.37-1.45,2.34c-0.97,0.97-2.12,1.96-3.46,2.98
		C45.98,87.08,45.09,87.75,44.67,88.07z"/>
	<radialGradient id="SVGID_2_" cx="445.3223" cy="179.4793" r="300.1362" gradientUnits="userSpaceOnUse">
		<stop  offset="0.2016" style="stop-color:#6DC6AF"/>
		<stop  offset="0.9944" style="stop-color:#05948A"/>
	</radialGradient>
	<path class="st1" d="M126.05,97.58l1.93-1.93h0.16v0.32c0.21,2.47,0,4.33-0.65,5.56c-0.64,1.24-0.97,1.91-0.97,2.01
		c-1.08,1.61-2.53,3.68-4.35,6.2c-1.83,2.53-3.73,5.1-5.72,7.73c-1.99,2.63-3.9,5.05-5.72,7.25c-1.83,2.2-3.28,3.79-4.35,4.75
		c-1.29,1.51-2.69,2.9-4.19,4.19c-0.54,0.43-1.26,0.8-2.18,1.13c-0.91,0.32-1.85,0.56-2.82,0.73c-0.97,0.16-1.91,0.19-2.82,0.08
		c-0.91-0.11-1.64-0.38-2.18-0.81c-1.83-1.18-3.25-2.61-4.27-4.27c-1.02-1.66-1.53-3.46-1.53-5.4c-0.32-5.91,0.19-11.95,1.53-18.13
		c1.34-6.18,2.93-11.79,4.75-16.84c0.54-1.5,1.29-3.06,2.26-4.67c0.97-0.97,2.09-1.23,3.38-0.81c1.29,0.43,2.44,1.32,3.46,2.66
		c1.02,1.34,1.77,2.98,2.26,4.92c0.48,1.93,0.4,3.87-0.24,5.8c-0.54,1.83-1.02,3.57-1.45,5.24c-0.43,1.67-0.91,3.41-1.45,5.24
		c-0.22,0.86-0.56,2.1-1.05,3.71c-0.48,1.61-1,3.3-1.53,5.08c-0.54,1.77-1.02,3.46-1.45,5.08c-0.43,1.61-0.7,2.85-0.8,3.71
		c-0.22,1.61,0.21,2.04,1.29,1.29c1.07-0.75,2.52-2.04,4.35-3.87c4.4-4.51,8.59-8.89,12.57-13.13
		C118.26,106.15,122.18,101.88,126.05,97.58z M103.48,78.24c-0.75,0.75-1.29,0.75-1.61,0c-1.4-2.15-2.31-4.4-2.74-6.77
		c-0.43-2.36-0.22-4.72,0.64-7.09c0.43-1.4,1.37-2.55,2.82-3.46c1.45-0.91,2.76-1.21,3.95-0.89c0.65,0.22,1.34,0.56,2.1,1.05
		c0.75,0.48,1.23,1.05,1.45,1.69c0.75,2.9,0.35,5.7-1.21,8.38C107.32,73.84,105.52,76.2,103.48,78.24z"/>
	<radialGradient id="SVGID_3_" cx="445.3223" cy="179.4793" r="300.1362" gradientUnits="userSpaceOnUse">
		<stop  offset="0.2016" style="stop-color:#6DC6AF"/>
		<stop  offset="0.9944" style="stop-color:#05948A"/>
	</radialGradient>
	<path class="st2" d="M148.42,93.53c-4.98,5.57-9.63,11.2-13.96,16.89c-4.33,5.69-8.57,11.38-12.71,17.07
		c-0.95,0.83-1.78,1.19-2.49,1.07c-0.71-0.12-1.33-0.47-1.87-1.07c-0.53-0.59-0.95-1.33-1.24-2.22c-0.29-0.89-0.5-1.69-0.62-2.4
		c-0.24-2.13-0.24-4.47,0-7.02c0.24-2.55,0.47-4.18,0.71-4.89c0.48-2.01,1.1-4.33,1.87-6.93c0.77-2.61,1.57-5.25,2.4-7.91
		c0.83-2.67,1.63-5.27,2.4-7.82c0.77-2.55,1.51-4.83,2.22-6.85c0.47-1.42,1.3-2.28,2.49-2.58c1.18-0.29,2.34-0.12,3.47,0.53
		c1.13,0.65,2.01,1.75,2.67,3.29c0.65,1.54,0.74,3.5,0.27,5.87c-0.47,2.37-1.01,4.74-1.6,7.11c-0.6,2.37-1.13,4.69-1.6,6.94
		c3.44-3.79,6.84-7.74,10.22-11.83c3.38-4.09,6.67-8.15,9.87-12.18c1.54-1.07,3.14-1.3,4.8-0.71c1.66,0.6,2.9,1.9,3.73,3.91
		c0.95,2.13,1.36,4.33,1.25,6.58c-0.12,2.25-0.42,4.39-0.89,6.4c3.44-3.56,7.47-7.05,12.09-10.49c4.62-3.44,9.13-6.05,13.51-7.83
		c2.13-0.83,4.09-0.95,5.87-0.35c1.78,0.59,3.32,1.69,4.62,3.29c1.3,1.6,2.28,3.56,2.93,5.87c0.65,2.31,0.92,4.71,0.8,7.2
		c-1.42,2.96-2.79,5.84-4.09,8.62c-1.31,2.79-2.49,5.54-3.56,8.27c-1.07,2.73-1.93,5.45-2.58,8.18c-0.65,2.73-0.92,5.51-0.8,8.36
		c0.83,0.6,2.22,0.24,4.18-1.07c1.96-1.3,4.18-3.02,6.67-5.16c2.49-2.13,5.07-4.38,7.74-6.76c2.67-2.37,5.01-4.38,7.02-6.05
		c5.81-4.62,9.01-6.58,9.6-5.87c0.59,0.71-1.07,3.38-4.98,8c-3.8,4.51-7.8,8.95-12,13.34c-4.21,4.39-8.69,8.18-13.42,11.38
		c-1.54,1.07-3.32,1.63-5.33,1.69c-2.02,0.06-4-0.3-5.96-1.07c-1.96-0.77-3.65-1.96-5.07-3.56s-2.25-3.59-2.49-5.96
		c-0.36-3.08-0.15-6.34,0.62-9.78c0.77-3.44,1.81-6.85,3.11-10.23c1.3-3.38,2.79-6.67,4.45-9.87c1.66-3.2,3.2-6.16,4.62-8.89
		c-0.36-0.95-1.69-0.62-4,0.98c-2.31,1.6-5.13,3.82-8.45,6.67c-3.32,2.85-6.82,6.05-10.49,9.6c-3.67,3.56-7.05,6.82-10.14,9.78
		c-1.31,1.19-2.28,1.93-2.93,2.22c-0.65,0.3-1.22,0.44-1.69,0.44c-1.19,0-1.96-0.98-2.31-2.93c-0.36-1.96-0.51-4.21-0.44-6.76
		c0.06-2.55,0.27-5.04,0.62-7.47C147.89,96.17,148.18,94.48,148.42,93.53z"/>
	<radialGradient id="SVGID_4_" cx="445.3223" cy="179.4793" r="300.1362" gradientUnits="userSpaceOnUse">
		<stop  offset="0.2016" style="stop-color:#6DC6AF"/>
		<stop  offset="0.9944" style="stop-color:#05948A"/>
	</radialGradient>
	<path class="st3" d="M208.44,117.24c-0.21-4.08,0.22-8.32,1.29-12.73c1.07-4.4,2.69-8.46,4.83-12.17c2.15-3.71,4.86-6.74,8.14-9.1
		c3.28-2.36,7.11-3.6,11.52-3.71c2.26,0.54,4,1.67,5.24,3.39c1.23,1.72,1.58,3.81,1.05,6.28c-0.43,2.37-1.05,4.38-1.85,6.04
		c-0.8,1.67-2.18,3.41-4.11,5.24c-0.97,0.86-2.31,1.99-4.03,3.39c-1.72,1.4-3.39,2.85-5,4.35c-1.61,1.51-3.01,3.04-4.19,4.59
		c-1.18,1.56-1.77,2.88-1.77,3.95c-0.32,2.79,0.11,4.59,1.29,5.4c1.18,0.8,2.71,1.13,4.59,0.97c1.88-0.16,3.79-0.67,5.72-1.53
		c1.93-0.86,3.49-1.61,4.67-2.26c1.4-0.97,2.95-2.18,4.67-3.63c1.72-1.45,3.44-2.98,5.16-4.59c1.72-1.61,3.38-3.17,4.99-4.67
		c1.61-1.5,2.95-2.74,4.03-3.71c0.86-0.86,1.64-1.66,2.34-2.42c0.7-0.75,1.53-1.4,2.5-1.93c0.86-0.21,1.53-0.27,2.01-0.16
		c0.48,0.11,0.4,0.91-0.24,2.42c-0.86,1.83-1.91,3.54-3.14,5.16c-1.24,1.61-2.55,3.22-3.95,4.84c-1.93,2.15-4,4.41-6.2,6.77
		c-2.2,2.36-4.51,4.54-6.93,6.53c-2.42,1.99-4.94,3.71-7.57,5.16c-2.63,1.45-5.35,2.39-8.14,2.82c-4.94,0.32-9-0.7-12.17-3.06
		C210.03,126.48,208.44,122.62,208.44,117.24z M234.23,86.95c-2.9,1.07-5.18,2.47-6.85,4.19c-1.67,1.72-2.88,4.25-3.63,7.57
		c2.36-1.72,4.48-3.46,6.37-5.24C232,91.7,233.37,89.52,234.23,86.95z"/>
	<radialGradient id="SVGID_5_" cx="445.3223" cy="179.4793" r="300.1362" gradientUnits="userSpaceOnUse">
		<stop  offset="0.2016" style="stop-color:#6DC6AF"/>
		<stop  offset="0.9944" style="stop-color:#05948A"/>
	</radialGradient>
	<path class="st4" d="M283.7,86.95c0-0.21,0.05-0.38,0.16-0.48c0-0.11,0.05-0.16,0.16-0.16c3.33-7.09,6.63-13.94,9.91-20.55
		c3.28-6.61,6.61-12.97,9.99-19.1c3.38-6.12,6.93-12.03,10.64-17.73c3.71-5.69,7.65-11.23,11.84-16.6c2.36-2.68,4.27-3.87,5.72-3.55
		c1.45,0.32,2.52,1.43,3.22,3.3c0.7,1.88,1.1,4.11,1.21,6.69c0.11,2.58,0.05,4.67-0.16,6.29c-1.61,6.66-3.79,13.32-6.53,19.98
		c-2.74,6.66-5.83,13.29-9.27,19.9c-3.44,6.61-7.15,13.19-11.12,19.74c-3.98,6.55-8.01,13.11-12.09,19.66
		c-0.54,0.65-0.94,1.32-1.21,2.01c-0.27,0.7-0.51,1.48-0.73,2.34c-0.22,0.97-0.46,2.34-0.73,4.11c-0.27,1.77-0.43,3.63-0.48,5.56
		c-0.06,1.93,0.08,3.71,0.4,5.32c0.32,1.61,0.91,2.63,1.77,3.06c1.29,0.65,3.17,0.51,5.64-0.4c2.47-0.91,5.1-2.28,7.9-4.11
		c2.79-1.83,5.61-3.92,8.46-6.28c2.85-2.36,5.29-4.62,7.33-6.77c0.21-0.21,0.54-0.19,0.97,0.08c0.43,0.27,0.78,0.67,1.05,1.21
		c0.27,0.54,0.38,1.16,0.32,1.85c-0.06,0.7-0.46,1.37-1.21,2.01c-2.47,2.15-5.51,4.86-9.1,8.14c-3.6,3.28-7.36,6.31-11.28,9.1
		c-3.92,2.79-7.76,4.92-11.52,6.37c-3.76,1.45-6.98,1.48-9.67,0.08c-2.47-1.29-4.22-3.36-5.24-6.2c-1.02-2.85-1.59-5.96-1.69-9.35
		c-0.11-3.39,0.02-6.71,0.4-9.99c0.38-3.28,0.73-5.88,1.05-7.82c-0.22,0.22-0.4,0.51-0.56,0.89c-0.16,0.38-0.35,0.73-0.56,1.05
		c-1.51,1.72-3.22,3.79-5.16,6.2c-1.93,2.42-4.05,4.65-6.37,6.69c-2.31,2.04-4.75,3.6-7.33,4.67c-2.58,1.07-5.21,1.13-7.9,0.16
		c-1.5-0.86-2.82-1.91-3.95-3.14c-1.13-1.23-1.69-2.87-1.69-4.92c0-3.97,0.78-8,2.34-12.09c1.56-4.08,3.68-7.71,6.37-10.88
		c2.68-3.17,5.85-5.69,9.51-7.57c3.65-1.88,7.57-2.66,11.76-2.34c1.18,0.22,2.39,0.51,3.63,0.89c1.23,0.38,2.28,1.05,3.14,2.01
		L283.7,86.95z M258.4,111.28l0.32,0.48c3.65-2.9,7.33-5.78,11.04-8.62c3.71-2.85,7.55-5.67,11.52-8.46
		c-2.26-1.07-4.7-1.21-7.33-0.4c-2.63,0.81-5.1,2.15-7.41,4.03c-2.31,1.88-4.25,4.03-5.8,6.45
		C259.18,107.17,258.4,109.35,258.4,111.28z M330.76,30.86c-6.77,10.42-12.79,21.11-18.05,32.07c-5.26,10.96-9.89,22.29-13.86,34
		c2.47-4.51,5.4-9.67,8.78-15.47c3.38-5.8,6.69-11.74,9.91-17.81c3.22-6.07,6.07-11.98,8.54-17.73
		C328.55,40.19,330.11,35.16,330.76,30.86z"/>
	<radialGradient id="SVGID_6_" cx="445.3223" cy="179.4793" r="300.1362" gradientUnits="userSpaceOnUse">
		<stop  offset="0.2016" style="stop-color:#6DC6AF"/>
		<stop  offset="0.9944" style="stop-color:#05948A"/>
	</radialGradient>
	<path class="st5" d="M356.22,97.58l1.93-1.93h0.16v0.32c0.21,2.47,0,4.33-0.65,5.56c-0.64,1.24-0.97,1.91-0.97,2.01
		c-1.08,1.61-2.53,3.68-4.35,6.2c-1.83,2.53-3.73,5.1-5.72,7.73c-1.99,2.63-3.9,5.05-5.72,7.25c-1.83,2.2-3.28,3.79-4.35,4.75
		c-1.29,1.51-2.69,2.9-4.19,4.19c-0.54,0.43-1.26,0.8-2.18,1.13c-0.91,0.32-1.85,0.56-2.82,0.73c-0.97,0.16-1.91,0.19-2.82,0.08
		c-0.91-0.11-1.64-0.38-2.18-0.81c-1.83-1.18-3.25-2.61-4.27-4.27c-1.02-1.66-1.53-3.46-1.53-5.4c-0.32-5.91,0.19-11.95,1.53-18.13
		c1.34-6.18,2.93-11.79,4.75-16.84c0.54-1.5,1.29-3.06,2.26-4.67c0.97-0.97,2.09-1.23,3.38-0.81c1.29,0.43,2.44,1.32,3.46,2.66
		c1.02,1.34,1.77,2.98,2.26,4.92c0.48,1.93,0.4,3.87-0.24,5.8c-0.54,1.83-1.02,3.57-1.45,5.24c-0.43,1.67-0.91,3.41-1.45,5.24
		c-0.22,0.86-0.56,2.1-1.05,3.71c-0.48,1.61-1,3.3-1.53,5.08c-0.54,1.77-1.02,3.46-1.45,5.08c-0.43,1.61-0.7,2.85-0.8,3.71
		c-0.22,1.61,0.21,2.04,1.29,1.29c1.07-0.75,2.52-2.04,4.35-3.87c4.4-4.51,8.59-8.89,12.57-13.13
		C348.43,106.15,352.35,101.88,356.22,97.58z M333.66,78.24c-0.75,0.75-1.29,0.75-1.61,0c-1.4-2.15-2.31-4.4-2.74-6.77
		c-0.43-2.36-0.22-4.72,0.64-7.09c0.43-1.4,1.37-2.55,2.82-3.46c1.45-0.91,2.76-1.21,3.95-0.89c0.65,0.22,1.34,0.56,2.1,1.05
		c0.75,0.48,1.23,1.05,1.45,1.69c0.75,2.9,0.35,5.7-1.21,8.38C337.5,73.84,335.7,76.2,333.66,78.24z"/>
	<radialGradient id="SVGID_7_" cx="445.3223" cy="162.8935" r="300.1362" gradientUnits="userSpaceOnUse">
		<stop  offset="0.2016" style="stop-color:#6DC6AF"/>
		<stop  offset="0.9944" style="stop-color:#05948A"/>
	</radialGradient>
	<path class="st6" d="M358.8,96.3c-2.15-3.01-4.27-6.07-6.37-9.18c-2.1-3.12-3.14-6.55-3.14-10.31c0-4.19,1.21-8.14,3.63-11.84
		c2.42-3.71,5.18-6.69,8.3-8.94c1.29-0.86,2.6-1.56,3.95-2.09c1.34-0.54,2.76-0.48,4.27,0.16c0.65,0.32,1.32,0.56,2.01,0.73
		c0.7,0.16,1.32,0.35,1.85,0.56c0.54,0.22,1.13,0.54,1.77,0.97c0.65,0.43,0.97,1.02,0.97,1.77c0,3.01,0.08,5.45,0.24,7.33
		c0.16,1.88,0.4,3.49,0.73,4.83c0.32,1.34,0.64,2.53,0.97,3.55c0.32,1.02,0.64,2.12,0.97,3.3c0.21,1.07,0.16,1.99-0.16,2.74
		c-0.32,0.75-1.13,0.86-2.42,0.32c-2.36-0.86-4.11-2.58-5.24-5.16c-1.13-2.58-1.96-4.94-2.5-7.09c-0.11-0.43-0.38-1.18-0.81-2.26
		c-0.43-1.07-0.7-1.83-0.8-2.26c-0.86-0.21-1.88,0.08-3.06,0.89c-1.18,0.8-2.23,1.91-3.14,3.3c-0.92,1.4-1.51,3.01-1.77,4.83
		c-0.27,1.83,0.08,3.65,1.05,5.48c0.43,0.65,1.05,1.43,1.85,2.34c0.81,0.92,1.61,1.85,2.42,2.82c0.81,0.97,1.61,1.91,2.42,2.82
		c0.81,0.92,1.47,1.64,2.01,2.18c0.64,0.65,1.07,1,1.29,1.05c0.21,0.06,0.75-0.08,1.61-0.4c1.07-0.54,2.71-1.23,4.92-2.1
		c2.2-0.86,4.51-1.72,6.93-2.58c2.42-0.86,4.73-1.59,6.93-2.18c2.2-0.59,3.89-0.89,5.08-0.89c0.75,0,1.29,0.27,1.61,0.81
		c0.32,0.32,0.27,0.75-0.16,1.29c-0.43,0.54-0.99,1.07-1.69,1.61c-0.7,0.54-1.43,1.02-2.18,1.45c-0.75,0.43-1.24,0.7-1.45,0.81
		c-1.83,1.07-4.14,2.28-6.93,3.63c-2.79,1.34-5.21,2.66-7.25,3.95c-0.22,0.22-0.62,0.43-1.21,0.65c-0.59,0.22-1.05,0.43-1.37,0.64
		c1.29,2.9,2.2,5.4,2.74,7.49c0.54,2.1,0.73,4.11,0.56,6.04c-0.16,1.93-0.56,3.9-1.21,5.88c-0.65,1.99-1.51,4.27-2.58,6.85
		c-1.51,2.47-3.04,4.84-4.59,7.09c-1.56,2.26-3.3,4.3-5.24,6.12c-1.93,1.83-4.03,3.28-6.29,4.35c-2.26,1.07-4.73,1.61-7.41,1.61
		c-1.5,0-2.95-0.19-4.35-0.56c-1.4-0.38-2.58-1.16-3.55-2.34c-2.47-2.69-3.87-5.62-4.19-8.78c-0.32-3.17-0.05-6.31,0.81-9.43
		c0.64-1.93,1.45-3.71,2.42-5.32c2.36-4.08,4.97-7.55,7.82-10.39C352.7,101.6,355.68,98.88,358.8,96.3z M364.27,103.56
		c-1.18,1.18-2.79,2.87-4.84,5.08c-2.04,2.2-3.95,4.59-5.72,7.17c-1.77,2.58-3.22,5.13-4.35,7.65c-1.13,2.52-1.42,4.7-0.89,6.53
		c2.15-0.97,4.35-2.55,6.61-4.75c2.26-2.2,4.24-4.62,5.96-7.25c1.72-2.63,2.93-5.24,3.63-7.82
		C365.37,107.59,365.24,105.38,364.27,103.56z"/>
</g>
</svg>
